<svg xmlns="http://www.w3.org/2000/svg" viewBox="0 11.699999809265137 142.89999389648438 88.55000305175781"
     data-asc="1.02" width="142.89999389648438" height="88.55000305175781">
    <defs/>
    <g fill="#1468d7">
        <g transform="translate(0, 0)">
            <path d="M0 51L0 14.50L6.25 14.50L6.25 45.20L21.75 45.20L21.75 51L0 51ZM28.65 51L28.65 45.30L38.25 45.30L38.25 29.15L29.90 29.15L29.90 23.50L44.25 23.50L44.25 45.30L52.75 45.30L52.75 51L28.65 51M40.75 18.90Q38.85 18.90 37.75 17.92Q36.65 16.95 36.65 15.30Q36.65 13.65 37.75 12.67Q38.85 11.70 40.75 11.70Q42.65 11.70 43.75 12.67Q44.85 13.65 44.85 15.30Q44.85 16.95 43.75 17.92Q42.65 18.90 40.75 18.90ZM65.10 51L65.10 32.20L57.55 32.20L57.55 26.55L65.10 26.55L65.10 22.40Q65.10 18.80 67.50 16.65Q69.90 14.50 73.85 14.50L81.90 14.50L81.90 20L74 20Q72.80 20 72.08 20.67Q71.35 21.35 71.35 22.50L71.35 26.55L81.90 26.55L81.90 32.20L71.35 32.20L71.35 51L65.10 51ZM99.90 51.50Q96.40 51.50 93.80 50.15Q91.20 48.80 89.77 46.38Q88.35 43.95 88.35 40.70L88.35 33.80Q88.35 30.55 89.77 28.13Q91.20 25.70 93.80 24.35Q96.40 23 99.90 23Q103.35 23 105.92 24.35Q108.50 25.70 109.92 28.13Q111.35 30.55 111.35 33.80L111.35 38.75L94.40 38.75L94.40 40.70Q94.40 43.60 95.80 45.08Q97.20 46.55 99.95 46.55Q102.05 46.55 103.35 45.83Q104.65 45.10 105 43.70L111.15 43.70Q110.45 47.25 107.38 49.38Q104.30 51.50 99.90 51.50M105.30 35.25L105.30 33.75Q105.30 30.90 103.95 29.38Q102.60 27.85 99.90 27.85Q97.20 27.85 95.80 29.40Q94.40 30.95 94.40 33.80L94.40 34.85L105.75 34.75L105.30 35.25Z"/>
        </g>
        <g transform="translate(0, 48.75)">
            <path d="M11.50 51.45Q8 51.45 5.43 50.13Q2.85 48.80 1.43 46.38Q0 43.95 0 40.65L0 33.85Q0 30.55 1.43 28.13Q2.85 25.70 5.43 24.38Q8 23.05 11.50 23.05Q15.05 23.05 17.60 24.38Q20.15 25.70 21.58 28.13Q23 30.55 23 33.80L23 40.65Q23 43.95 21.58 46.38Q20.15 48.80 17.60 50.13Q15.05 51.45 11.50 51.45M11.50 46Q14 46 15.38 44.63Q16.75 43.25 16.75 40.65L16.75 33.85Q16.75 31.20 15.38 29.85Q14 28.50 11.50 28.50Q9.05 28.50 7.65 29.85Q6.25 31.20 6.25 33.85L6.25 40.65Q6.25 43.25 7.65 44.63Q9.05 46 11.50 46ZM36.75 51L36.75 32.20L29.20 32.20L29.20 26.55L36.75 26.55L36.75 22.40Q36.75 18.80 39.15 16.65Q41.55 14.50 45.50 14.50L53.55 14.50L53.55 20L45.65 20Q44.45 20 43.73 20.67Q43 21.35 43 22.50L43 26.55L53.55 26.55L53.55 32.20L43 32.20L43 51L36.75 51ZM91 51L91 45.50L98.35 45.50L98.35 20L91 20L91 14.50L112 14.50L112 20L104.65 20L104.65 45.50L112 45.50L112 51L91 51ZM131.50 51.50Q128 51.50 125.42 50.17Q122.85 48.85 121.47 46.42Q120.10 44 120.10 40.70L120.10 24.80Q120.10 21.50 121.47 19.07Q122.85 16.65 125.42 15.32Q128 14 131.50 14Q135.05 14 137.60 15.32Q140.15 16.65 141.53 19.07Q142.90 21.50 142.90 24.75L142.90 40.70Q142.90 44 141.53 46.42Q140.15 48.85 137.60 50.17Q135.05 51.50 131.50 51.50M131.50 46Q134.05 46 135.35 44.63Q136.65 43.25 136.65 40.70L136.65 24.80Q136.65 22.20 135.35 20.85Q134.05 19.50 131.50 19.50Q128.95 19.50 127.65 20.85Q126.35 22.20 126.35 24.80L126.35 40.70Q126.35 43.25 127.67 44.63Q129 46 131.50 46Z"/>
        </g>
    </g>
</svg>